# xmcd
#
# Track frame offsets: 
#        150
#        34861
#        58387
#        82924
#        106653
#        128999
#        159428
#        178407
#        197743
#        216517
#        237114
#        255455
#
# Disc length: 3646 seconds
#
# Revision: 0
# Processed by: cddbd v1.4PL0 Copyright (c) Steve Scherf et al.
# Submitted via: ExactAudioCopy v0.95a3
#
DISCID=a70e3c0c
DTITLE=Lauryn Hill - The Live Education Of Lauryn Hill
DYEAR=1900
DGENRE=
TTITLE0=Sex Factor
TTITLE1=Lost Ones
TTITLE2=Everything is Everything
TTITLE3=Killing Me Softly with His Song
TTITLE4=Doo Wop (That Thing)
TTITLE5=The Vocab
TTITLE6=Ready or Not
TTITLE7=Lost Ones (Remix)
TTITLE8=Sex Factor (A Simple Breakdown)
TTITLE9=Sex Factor (A Simple Mix)
TTITLE10=Doo Wop (Vocal)
TTITLE11=Doo Wop (Instrumental)
EXTD=
EXTT0=
EXTT1=
EXTT2=
EXTT3=
EXTT4=
EXTT5=
EXTT6=
EXTT7=
EXTT8=
EXTT9=
EXTT10=
EXTT11=
PLAYORDER=
